<svg id="Layer_1" data-name="Layer 1" xmlns="http://www.w3.org/2000/svg" viewBox="0 0 1998 1160.58"><defs>
<style>
.cls-1{
    font-size:214px;
    font-family:JetBrainsMono-Bold, JetBrains Mono;
    font-weight:700;letter-spacing:0.03em;
}
.cls-1,.cls-7{
    fill:#ffeb5c;
}
.cls-2{
    fill:#8c52ff;
}
.cls-3,.cls-5{
    fill:#4ad1a7;
}
.cls-3,.cls-4{
    letter-spacing:0.02em;
}
.cls-4,.cls-6{
    fill:#ff914d;
}
</style>
</defs>

<polygon class="cls-5" points="1298.84 1.25 1249.69 1.25 999 570.57 748.31 1.25 699.16 1.25 641.49 26.64 915.64 649.25 964.36 649.25 1033.64 649.25 1082.36 649.25 1356.51 26.64 1298.84 1.25"/>
<polygon class="cls-6" points="1439 757.25 1359 757.25 1359 109.25 1439 109.25 1439 1.25 1359 1.25 1251 1.25 1251 865.25 1359 865.25 1439 865.25 1439 757.25"/>
<polygon class="cls-7" points="557 756 637 756 637 108 557 108 557 0 637 0 745 0 745 864 637 864 557 864 557 756"/>
</svg>