<svg width="317" height="94" viewBox="0 0 317 94" fill="none" xmlns="http://www.w3.org/2000/svg">
<path d="M26.0606 29.0101C26.0606 29.0101 26.0606 29.0101 26.0441 29.0267C26.0441 29.0267 26.0441 29.0267 26.0276 29.0432C26.0276 29.0432 26.0276 29.0432 26.0441 29.0267C26.0441 29.0267 26.0441 29.0267 26.0606 29.0101Z" fill="#181818"/>
<path d="M12.7361 15.7374C10.6722 17.8013 8.8714 20.0473 7.35384 22.3944C-2.64182 37.9342 -0.840982 58.8563 12.7361 72.4334C26.3335 86.0308 47.2353 87.8114 62.7549 77.8157C59.6793 77.8157 56.6037 76.6421 54.2566 74.295C51.1607 71.1992 50.1086 66.8286 51.1 62.8627C43.0469 67.1726 32.8084 65.918 26.03 59.1396C19.2515 52.3612 17.997 42.1227 22.3069 34.0695C23.2579 32.2687 24.4922 30.5892 26.0097 29.0717C26.0097 29.0717 26.0097 29.0717 26.03 29.0515C26.03 29.0515 26.03 29.0515 26.0502 29.0312C29.6923 25.3486 29.6923 19.42 26.03 15.7576C22.3676 12.075 16.3985 12.075 12.7361 15.7576" fill="#181818"/>
<path d="M12.7361 15.7374C10.6722 17.8013 8.8714 20.0473 7.35384 22.3944C-2.64182 37.9342 -0.840982 58.8563 12.7361 72.4334C26.3335 86.0308 47.2353 87.8114 62.7549 77.8157C59.6793 77.8157 56.6037 76.6421 54.2566 74.295C51.1607 71.1992 50.1086 66.8286 51.1 62.8627C43.0469 67.1726 32.8084 65.918 26.03 59.1396C19.2515 52.3612 17.997 42.1227 22.3069 34.0695C23.2579 32.2687 24.4922 30.5892 26.0097 29.0717C26.0097 29.0717 26.0097 29.0717 26.03 29.0515C26.03 29.0515 26.03 29.0515 26.0502 29.0312C29.6923 25.3486 29.6923 19.42 26.03 15.7576C22.3676 12.075 16.3985 12.075 12.7361 15.7576" stroke="white"/>
<path d="M56.1178 59.1516C56.1178 59.1516 56.1178 59.1516 56.1343 59.135C56.1343 59.135 56.1343 59.135 56.1509 59.1185C56.1509 59.1185 56.1509 59.1185 56.1343 59.135C56.1178 59.1516 56.1343 59.135 56.1178 59.1516Z" fill="#181818"/>
<path d="M19.4115 10.3538C22.4871 10.3538 25.5627 11.5274 27.9099 13.8746C31.0057 16.9704 32.0579 21.341 31.0664 25.3069C39.1196 20.997 49.3581 22.2515 56.1365 29.03C62.9149 35.8084 64.1694 46.0469 59.8596 54.1C58.9086 55.9009 57.6743 57.5803 56.1567 59.0979C56.1567 59.0979 56.1567 59.0979 56.1365 59.1181C56.1365 59.1181 56.1365 59.1181 56.1163 59.1383C52.4741 62.821 52.4741 68.7496 56.1365 72.4119C59.7989 76.0743 65.7679 76.0743 69.4303 72.4119C71.4942 70.3481 73.295 68.1021 74.8126 65.7549C84.8083 50.2353 83.0277 29.3132 69.4303 15.7361C55.833 2.15902 34.9311 0.35818 19.4115 10.3538Z" fill="#72BE9E" stroke="white"/>
<path d="M119.032 38.322C116.057 38.322 113.313 37.632 110.798 36.252C108.314 34.8413 106.336 32.894 104.864 30.41C103.423 27.8953 102.702 25.074 102.702 21.946C102.702 18.818 103.423 16.012 104.864 13.528C106.336 11.044 108.314 9.112 110.798 7.732C113.313 6.32133 116.057 5.616 119.032 5.616C122.037 5.616 124.782 6.32133 127.266 7.732C129.781 9.112 131.759 11.044 133.2 13.528C134.641 16.012 135.362 18.818 135.362 21.946C135.362 25.074 134.641 27.8953 133.2 30.41C131.759 32.894 129.781 34.8413 127.266 36.252C124.782 37.632 122.037 38.322 119.032 38.322ZM119.032 33.768C121.148 33.768 123.034 33.2927 124.69 32.342C126.346 31.3607 127.634 29.9807 128.554 28.202C129.505 26.3927 129.98 24.3073 129.98 21.946C129.98 19.5847 129.505 17.5147 128.554 15.736C127.634 13.9573 126.346 12.5927 124.69 11.642C123.034 10.6913 121.148 10.216 119.032 10.216C116.916 10.216 115.03 10.6913 113.374 11.642C111.718 12.5927 110.415 13.9573 109.464 15.736C108.544 17.5147 108.084 19.5847 108.084 21.946C108.084 24.3073 108.544 26.3927 109.464 28.202C110.415 29.9807 111.718 31.3607 113.374 32.342C115.03 33.2927 116.916 33.768 119.032 33.768ZM153.31 12.24C155.304 12.24 157.082 12.654 158.646 13.482C160.241 14.31 161.483 15.5367 162.372 17.162C163.262 18.7873 163.706 20.75 163.706 23.05V38H158.508V23.832C158.508 21.5627 157.941 19.83 156.806 18.634C155.672 17.4073 154.123 16.794 152.16 16.794C150.198 16.794 148.634 17.4073 147.468 18.634C146.334 19.83 145.766 21.5627 145.766 23.832V38H140.522V12.654H145.766V15.552C146.625 14.5093 147.714 13.6967 149.032 13.114C150.382 12.5313 151.808 12.24 153.31 12.24ZM193.625 24.706C193.625 25.6567 193.564 26.5153 193.441 27.282H174.075C174.229 29.306 174.98 30.9313 176.329 32.158C177.679 33.3847 179.335 33.998 181.297 33.998C184.119 33.998 186.112 32.8173 187.277 30.456H192.935C192.169 32.7867 190.773 34.7033 188.749 36.206C186.756 37.678 184.272 38.414 181.297 38.414C178.875 38.414 176.697 37.8773 174.765 36.804C172.864 35.7 171.361 34.1667 170.257 32.204C169.184 30.2107 168.647 27.9107 168.647 25.304C168.647 22.6973 169.169 20.4127 170.211 18.45C171.285 16.4567 172.772 14.9233 174.673 13.85C176.605 12.7767 178.813 12.24 181.297 12.24C183.689 12.24 185.821 12.7613 187.691 13.804C189.562 14.8467 191.019 16.3187 192.061 18.22C193.104 20.0907 193.625 22.2527 193.625 24.706ZM188.151 23.05C188.121 21.118 187.431 19.5693 186.081 18.404C184.732 17.2387 183.061 16.656 181.067 16.656C179.258 16.656 177.709 17.2387 176.421 18.404C175.133 19.5387 174.367 21.0873 174.121 23.05H188.151ZM219.44 6.03V10.308H210.93V38H205.686V10.308H197.13V6.03H219.44ZM258.791 12.654L250.925 38H245.405L240.299 19.278L235.193 38H229.673L221.761 12.654H227.097L232.387 33.032L237.769 12.654H243.243L248.395 32.94L253.639 12.654H258.791ZM273.704 38.414C271.312 38.414 269.15 37.8773 267.218 36.804C265.286 35.7 263.768 34.1667 262.664 32.204C261.56 30.2107 261.008 27.9107 261.008 25.304C261.008 22.728 261.575 20.4433 262.71 18.45C263.844 16.4567 265.393 14.9233 267.356 13.85C269.318 12.7767 271.511 12.24 273.934 12.24C276.356 12.24 278.549 12.7767 280.512 13.85C282.474 14.9233 284.023 16.4567 285.158 18.45C286.292 20.4433 286.86 22.728 286.86 25.304C286.86 27.88 286.277 30.1647 285.112 32.158C283.946 34.1513 282.352 35.7 280.328 36.804C278.334 37.8773 276.126 38.414 273.704 38.414ZM273.704 33.86C275.053 33.86 276.31 33.538 277.476 32.894C278.672 32.25 279.638 31.284 280.374 29.996C281.11 28.708 281.478 27.144 281.478 25.304C281.478 23.464 281.125 21.9153 280.42 20.658C279.714 19.37 278.779 18.404 277.614 17.76C276.448 17.116 275.191 16.794 273.842 16.794C272.492 16.794 271.235 17.116 270.07 17.76C268.935 18.404 268.03 19.37 267.356 20.658C266.681 21.9153 266.344 23.464 266.344 25.304C266.344 28.0333 267.034 30.1493 268.414 31.652C269.824 33.124 271.588 33.86 273.704 33.86ZM123.724 75.468H110.338L108.038 82H102.564L114.018 49.984H120.09L131.544 82H126.024L123.724 75.468ZM122.252 71.19L117.054 56.332L111.81 71.19H122.252ZM149.312 56.24C151.306 56.24 153.084 56.654 154.648 57.482C156.243 58.31 157.485 59.5367 158.374 61.162C159.264 62.7873 159.708 64.75 159.708 67.05V82H154.51V67.832C154.51 65.5627 153.943 63.83 152.808 62.634C151.674 61.4073 150.125 60.794 148.162 60.794C146.2 60.794 144.636 61.4073 143.47 62.634C142.336 63.83 141.768 65.5627 141.768 67.832V82H136.524V56.654H141.768V59.552C142.627 58.5093 143.716 57.6967 145.034 57.114C146.384 56.5313 147.81 56.24 149.312 56.24ZM182.037 78.32C181.271 79.4853 180.075 80.4667 178.449 81.264C176.855 82.0613 175.122 82.46 173.251 82.46C171.626 82.46 170.154 82.138 168.835 81.494C167.517 80.8193 166.489 79.9147 165.753 78.78C165.017 77.6147 164.649 76.3113 164.649 74.87C164.649 72.5393 165.493 70.6073 167.179 69.074C168.897 67.5407 171.457 66.774 174.861 66.774H182.037C181.976 64.9647 181.424 63.508 180.381 62.404C179.369 61.3 178.005 60.748 176.287 60.748C174.723 60.748 173.42 61.1773 172.377 62.036C171.365 62.8947 170.721 64.0907 170.445 65.624H165.293C165.661 62.8333 166.842 60.564 168.835 58.816C170.859 57.068 173.42 56.194 176.517 56.194C178.541 56.194 180.366 56.6387 181.991 57.528C183.647 58.3867 184.951 59.644 185.901 61.3C186.883 62.956 187.373 64.9033 187.373 67.142V82H182.037V78.32ZM174.355 77.86C175.551 77.86 176.732 77.6147 177.897 77.124C179.093 76.6027 180.075 75.836 180.841 74.824C181.639 73.7813 182.037 72.524 182.037 71.052V71.006H174.861C173.205 71.006 171.979 71.328 171.181 71.972C170.415 72.616 170.031 73.444 170.031 74.456C170.031 75.4987 170.415 76.3267 171.181 76.94C171.948 77.5533 173.006 77.86 174.355 77.86ZM199.538 47.96V82H194.294V47.96H199.538ZM229.239 56.654L213.691 93.914H208.263L213.415 81.586L203.433 56.654H209.275L216.405 75.974L223.811 56.654H229.239ZM239.314 60.932V74.962C239.314 75.9127 239.529 76.6027 239.958 77.032C240.418 77.4307 241.185 77.63 242.258 77.63H245.478V82H241.338C238.977 82 237.167 81.448 235.91 80.344C234.653 79.24 234.024 77.446 234.024 74.962V60.932H231.034V56.654H234.024V50.352H239.314V56.654H245.478V60.932H239.314ZM252.979 53.296C252.029 53.296 251.231 52.974 250.587 52.33C249.943 51.686 249.621 50.8887 249.621 49.938C249.621 48.9873 249.943 48.19 250.587 47.546C251.231 46.902 252.029 46.58 252.979 46.58C253.899 46.58 254.681 46.902 255.325 47.546C255.969 48.19 256.291 48.9873 256.291 49.938C256.291 50.8887 255.969 51.686 255.325 52.33C254.681 52.974 253.899 53.296 252.979 53.296ZM255.555 56.654V82H250.311V56.654H255.555ZM260.692 69.304C260.692 66.6973 261.214 64.4127 262.256 62.45C263.33 60.4567 264.802 58.9233 266.672 57.85C268.543 56.7767 270.69 56.24 273.112 56.24C276.179 56.24 278.709 56.976 280.702 58.448C282.726 59.8893 284.091 61.9593 284.796 64.658H279.138C278.678 63.4007 277.942 62.4193 276.93 61.714C275.918 61.0087 274.646 60.656 273.112 60.656C270.966 60.656 269.248 61.4227 267.96 62.956C266.703 64.4587 266.074 66.5747 266.074 69.304C266.074 72.0333 266.703 74.1647 267.96 75.698C269.248 77.2313 270.966 77.998 273.112 77.998C276.148 77.998 278.157 76.664 279.138 73.996H284.796C284.06 76.572 282.68 78.6267 280.656 80.16C278.632 81.6627 276.118 82.414 273.112 82.414C270.69 82.414 268.543 81.8773 266.672 80.804C264.802 79.7 263.33 78.1667 262.256 76.204C261.214 74.2107 260.692 71.9107 260.692 69.304ZM299.222 82.414C297.229 82.414 295.435 82.0613 293.84 81.356C292.276 80.62 291.034 79.6387 290.114 78.412C289.194 77.1547 288.704 75.7593 288.642 74.226H294.07C294.162 75.2993 294.668 76.204 295.588 76.94C296.539 77.6453 297.72 77.998 299.13 77.998C300.602 77.998 301.737 77.722 302.534 77.17C303.362 76.5873 303.776 75.8513 303.776 74.962C303.776 74.0113 303.316 73.306 302.396 72.846C301.507 72.386 300.081 71.88 298.118 71.328C296.217 70.8067 294.668 70.3007 293.472 69.81C292.276 69.3193 291.234 68.568 290.344 67.556C289.486 66.544 289.056 65.21 289.056 63.554C289.056 62.2047 289.455 60.978 290.252 59.874C291.05 58.7393 292.184 57.85 293.656 57.206C295.159 56.562 296.876 56.24 298.808 56.24C301.691 56.24 304.006 56.976 305.754 58.448C307.533 59.8893 308.484 61.8673 308.606 64.382H303.362C303.27 63.2473 302.81 62.3427 301.982 61.668C301.154 60.9933 300.035 60.656 298.624 60.656C297.244 60.656 296.186 60.9167 295.45 61.438C294.714 61.9593 294.346 62.6493 294.346 63.508C294.346 64.1827 294.592 64.75 295.082 65.21C295.573 65.67 296.171 66.038 296.876 66.314C297.582 66.5593 298.624 66.8813 300.004 67.28C301.844 67.7707 303.347 68.2767 304.512 68.798C305.708 69.2887 306.736 70.0247 307.594 71.006C308.453 71.9873 308.898 73.2907 308.928 74.916C308.928 76.3573 308.53 77.6453 307.732 78.78C306.935 79.9147 305.8 80.804 304.328 81.448C302.887 82.092 301.185 82.414 299.222 82.414Z" fill="#181818"/>
</svg>
